<?xml version="1.0" encoding="UTF-8" standalone="no"?>
<svg
   xmlns:dc="http://purl.org/dc/elements/1.1/"
   xmlns:cc="http://creativecommons.org/ns#"
   xmlns:rdf="http://www.w3.org/1999/02/22-rdf-syntax-ns#"
   xmlns:svg="http://www.w3.org/2000/svg"
   xmlns="http://www.w3.org/2000/svg"
   xmlns:sodipodi="http://sodipodi.sourceforge.net/DTD/sodipodi-0.dtd"
   xmlns:inkscape="http://www.inkscape.org/namespaces/inkscape"
   height="67px"
   id="Layer_1"
   style="enable-background:new 0 0 67 67;"
   version="1.1"
   viewBox="0 0 67 67"
   width="67px"
   xml:space="preserve"
   inkscape:version="0.48.4 r9939"
   sodipodi:docname="1396046190_twitter_six_black.svg"
   inkscape:export-filename="C:\Users\Julian\Downloads\1396046190_twitter_six_black.png"
   inkscape:export-xdpi="70.615387"
   inkscape:export-ydpi="70.615387"><metadata
     id="metadata3001"><rdf:RDF><cc:Work
         rdf:about=""><dc:format>image/svg+xml</dc:format><dc:type
           rdf:resource="http://purl.org/dc/dcmitype/StillImage" /><dc:title></dc:title></cc:Work></rdf:RDF></metadata><defs
     id="defs2999" /><sodipodi:namedview
     pagecolor="#ffffff"
     bordercolor="#666666"
     borderopacity="1"
     objecttolerance="10"
     gridtolerance="10"
     guidetolerance="10"
     inkscape:pageopacity="0"
     inkscape:pageshadow="2"
     inkscape:window-width="1280"
     inkscape:window-height="747"
     id="namedview2997"
     showgrid="false"
     inkscape:zoom="7.9104478"
     inkscape:cx="23.892453"
     inkscape:cy="31.983019"
     inkscape:window-x="-8"
     inkscape:window-y="-8"
     inkscape:window-maximized="1"
     inkscape:current-layer="Layer_1" /><path
     d="m 1,33.5 16.25,-28.146 32.5,0 L 66,33.5 49.75,61.646 l -32.5,0 z"
     style="fill:#ff8860;fill-rule:evenodd;fill-opacity:1"
     id="path2995"
     inkscape:connector-curvature="0"
     sodipodi:nodetypes="ccccccc" /><path
     inkscape:connector-curvature="0"
     id="path3003"
     style="fill:#030710;fill-rule:evenodd;fill-opacity:1"
     d="m 37.166804,21.783687 c -2.619,0.953 -4.274,3.411004 -4.086,6.102004 l 0.063,1.038 -1.048,-0.128 c -3.813,-0.486 -7.145,-2.14 -9.974,-4.914004 l -1.383,-1.377 -0.356,1.017 c -0.754,2.267004 -0.272,4.660004 1.299,6.271004 0.838,0.89 0.649,1.017 -0.796,0.487 -0.503,-0.17 -0.943,-0.297 -0.985,-0.233 -0.146,0.148 0.356,2.076 0.754,2.838996 0.545,1.06 1.655,2.098 2.871,2.712 l 1.027,0.487 -1.215,0.021 c -1.173,0 -1.215,0.021 -1.089,0.466 0.419,1.377 2.074,2.839 3.918,3.475 l 1.299,0.444 -1.131,0.67801 c -1.676,0.975 -3.646,1.525 -5.616,1.568 -0.944,0.02 -1.719,0.105 -1.719,0.168 0,0.212 2.557,1.398 4.044,1.864 4.463,1.377 9.765,0.784 13.746,-1.567 2.829,-1.674 5.657,-5.00001 6.978,-8.22001 0.713,-1.716 1.425,-4.851996 1.425,-6.354996 0,-0.975 0.063,-1.102 1.236,-2.267 0.692,-0.679 1.341,-1.42 1.467,-1.632004 0.21,-0.402 0.188,-0.402 -0.88,-0.042 -1.781,0.636004 -2.033,0.551004 -1.152,-0.402 0.649,-0.678 1.425,-1.907 1.425,-2.268 0,-0.063 -0.314,0.043 -0.671,0.233 -0.377,0.212 -1.215,0.53 -1.844,0.721 l -1.131,0.36 -1.027,-0.699 c -0.566,-0.382 -1.361,-0.806 -1.781,-0.933 -1.069,-0.296 -2.704,-0.253 -3.668,0.086 z"
     sodipodi:nodetypes="cccccccccccccccccccscccsccccscccccc" /></svg>